# xmcd
#
# Track frame offsets:
#	150
#	13771
#	31668
#	46464
#	62793
#	76370
#	93037
#	107002
#	125136
#	143964
#	158799
#
# Disc length: 2352 seconds
# Revision: 5
# Processed by: cddbd v1.5.2PL0 Copyright (c) Steve Scherf et al.
# Submitted via: dBpowerAMP V12.0
#
DISCID=8a092e0b
DTITLE=Chris Cagle - My Life's Been A Country Song
DYEAR=2008
DGENRE=Country
TTITLE0=What Kinda Gone
TTITLE1=No Love Songs
TTITLE2=It's Good To Be Back
TTITLE3=I Don't Wanna Live
TTITLE4=Never Ever Gone
TTITLE5=If It Isn't One Thing
TTITLE6=Keep Me From Loving You
TTITLE7=Little Sundress
TTITLE8=My Heart Move On
TTITLE9=My Life's Been A Country Song
TTITLE10=Change Me
EXTD=
EXTT0=
EXTT1=
EXTT2=
EXTT3=
EXTT4=
EXTT5=
EXTT6=
EXTT7=
EXTT8=
EXTT9=
EXTT10=
PLAYORDER=
